<svg id="kity_svg_6" xmlns="http://www.w3.org/2000/svg" xmlns:xlink="http://www.w3.org/1999/xlink" version="1.1" width="1445" height="797" style="background: rgb(251, 251, 251); visibility: visible;" viewBox="0 0 1445 797"><defs id="kity_defs_7"><linearGradient id="kity_linearGradient_17" x1="0" y1="0" x2="0" y2="1"><stop id="kity_stop_18" offset="0" stop-color="rgb(255, 255, 255)"></stop><stop id="kity_stop_19" offset="1" stop-color="rgb(204, 204, 204)"></stop></linearGradient><marker id="kity_marker_2" orient="auto" refX="6" refY="0" viewBox="-7 -7 14 14" markerWidth="7" markerHeight="7" markerUnits="userSpaceOnUse"><path id="kity_path_3" fill="rgb(115, 161, 191)" stroke="none" d="M6,0A6,6,0,1,1,-6,0A6,6,0,1,1,6,0"></path></marker></defs><g id="kity_g_8"><g id="minder1" text-rendering="optimize-speed"><g id="minder_connect_group1"><path id="kity_path_31" fill="none" stroke="rgb(115, 161, 191)" stroke-width="1" d="M69.5000055655837,425.5000069513917A167,0,0,0,1,236.5000055655837,425.5000069513917"></path><path id="kity_path_39" fill="none" stroke="rgb(115, 161, 191)" stroke-width="1" d="M373.5000055655837,425.5000069513917C388.5000055655837,425.5000069513917,388.5000055655837,221.5000069513917,403.5000055655837,221.5000069513917L459.5000055655837,221.5000069513917"></path><path id="kity_path_47" fill="none" stroke="rgb(115, 161, 191)" stroke-width="1" d="M459.5000055655837,221.5000069513917C474.5000055655837,221.5000069513917,474.5000055655837,63.5000069513917,489.5000055655837,63.5000069513917L624.5000055655837,63.5000069513917"></path><path id="kity_path_55" fill="none" stroke="rgb(115, 161, 191)" stroke-width="1" d="M459.5000055655837,221.5000069513917C474.5000055655837,221.5000069513917,474.5000055655837,133.5000069513917,489.5000055655837,133.5000069513917L664.5000055655837,133.5000069513917"></path><path id="kity_path_63" fill="none" stroke="rgb(115, 161, 191)" stroke-width="1" d="M459.5000055655837,221.5000069513917C474.5000055655837,221.5000069513917,474.5000055655837,203.5000069513917,489.5000055655837,203.5000069513917L690.5000055655837,203.5000069513917"></path><path id="kity_path_71" fill="none" stroke="rgb(115, 161, 191)" stroke-width="1" d="M459.5000055655837,221.5000069513917C474.5000055655837,221.5000069513917,474.5000055655837,300.5000069513917,489.5000055655837,300.5000069513917L670.5000055655837,300.5000069513917"></path><path id="kity_path_79" fill="none" stroke="rgb(115, 161, 191)" stroke-width="1" d="M459.5000055655837,221.5000069513917C474.5000055655837,221.5000069513917,474.5000055655837,379.5000069513917,489.5000055655837,379.5000069513917L674.5000055655837,379.5000069513917"></path><path id="kity_path_97" fill="none" stroke="rgb(115, 161, 191)" stroke-width="1" d="M690.5000055655837,203.5000069513917C705.5000055655837,203.5000069513917,705.5000055655837,221.5000069513917,720.5000055655837,221.5000069513917L1097.5000055655837,221.5000069513917"></path><path id="kity_path_107" fill="none" stroke="rgb(115, 161, 191)" stroke-width="1" d="M670.5000055655837,300.5000069513917C685.5000055655837,300.5000069513917,685.5000055655837,327.5000069513917,700.5000055655837,327.5000069513917L1090.5000055655837,327.5000069513917"></path><path id="kity_path_146" fill="none" stroke="rgb(115, 161, 191)" stroke-width="1" d="M624.5000055655837,63.5000069513917C639.5000055655837,63.5000069513917,639.5000055655837,81.5000069513917,654.5000055655837,81.5000069513917L1014.5000055655837,81.5000069513917"></path><path id="kity_path_170" fill="none" stroke="rgb(115, 161, 191)" stroke-width="1" d="M373.5000055655837,425.5000069513917C388.5000055655837,425.5000069513917,388.5000055655837,657.5000069513917,403.5000055655837,657.5000069513917L481.5000055655837,657.5000069513917"></path><path id="kity_path_178" fill="none" stroke="rgb(115, 161, 191)" stroke-width="1" d="M481.5000055655837,657.5000069513917C496.5000055655837,657.5000069513917,496.5000055655837,565.5000069513917,511.5000055655837,565.5000069513917L610.5000055655837,565.5000069513917"></path><path id="kity_path_210" fill="none" stroke="rgb(115, 161, 191)" stroke-width="1" d="M610.5000055655837,565.5000069513917C625.5000055655837,565.5000069513917,625.5000055655837,459.5000069513917,640.5000055655837,459.5000069513917L726.5000055655837,459.5000069513917"></path><path id="kity_path_218" fill="none" stroke="rgb(115, 161, 191)" stroke-width="1" d="M726.5000055655837,459.5000069513917C741.5000055655837,459.5000069513917,741.5000055655837,486.5000069513917,756.5000055655837,486.5000069513917L928.5000055655837,486.5000069513917"></path><path id="kity_path_229" fill="none" stroke="rgb(115, 161, 191)" stroke-width="1" d="M610.5000055655837,565.5000069513917C625.5000055655837,565.5000069513917,625.5000055655837,565.5000069513917,640.5000055655837,565.5000069513917L713.5000055655837,565.5000069513917"></path><path id="kity_path_237" fill="none" stroke="rgb(115, 161, 191)" stroke-width="1" d="M713.5000055655837,565.5000069513917C728.5000055655837,565.5000069513917,728.5000055655837,592.5000069513917,743.5000055655837,592.5000069513917L991.5000055655837,592.5000069513917"></path><path id="kity_path_248" fill="none" stroke="rgb(115, 161, 191)" stroke-width="1" d="M610.5000055655837,565.5000069513917C625.5000055655837,565.5000069513917,625.5000055655837,671.5000069513917,640.5000055655837,671.5000069513917L714.5000055655837,671.5000069513917"></path><path id="kity_path_256" fill="none" stroke="rgb(115, 161, 191)" stroke-width="1" d="M714.5000055655837,671.5000069513917C729.5000055655837,671.5000069513917,729.5000055655837,698.5000069513917,744.5000055655837,698.5000069513917L1425.5000055655837,698.5000069513917"></path><path id="kity_path_267" fill="none" stroke="rgb(115, 161, 191)" stroke-width="1" d="M481.5000055655837,657.5000069513917C496.5000055655837,657.5000069513917,496.5000055655837,750.5000069513917,511.5000055655837,750.5000069513917L740.5000055655837,750.5000069513917"></path><path id="kity_path_275" fill="none" stroke="rgb(115, 161, 191)" stroke-width="1" d="M740.5000055655837,750.5000069513917C755.5000055655837,750.5000069513917,755.5000055655837,777.5000069513917,770.5000055655837,777.5000069513917L1141.5000055655837,777.5000069513917"></path></g><g id="minder_node1"><path id="node_outline1" fill="rgb(115, 161, 191)" stroke="rgb(115, 161, 191)" d="M25.500005565583706,405.5000069513917h88a5,5,0,0,1,5,5v30a5,5,0,0,1,-5,5h-88a5,5,0,0,1,-5,-5v-30a5,5,0,0,1,5,-5z" stroke-width="3"></path><g id="node_text1" fill="white"><text id="kity_text_22" text-rendering="inherit" font-size="16" dy=".8em" y="415.1000069156289" x="44.500005565583706">序列化</text></g></g><g id="kity_g_12"><path id="kity_path_13" fill="none" stroke="none" d="M44.500005565583706,425.5000069513917h0v0h0z"></path></g><g id="kity_g_14"><path id="kity_path_15" fill="none" stroke="none" d="M44.500005565583706,425.5000069513917h0v0h0z"></path><path id="kity_path_16" fill="none" stroke="none"></path></g><g id="minder_node2"><g id="node_expander1" style="cursor: pointer;"><path id="kity_path_36" fill="white" stroke="gray" d="M237.50000835210085,425.5000069513917A6,6,0,1,1,225.50000835210085,425.5000069513917A6,6,0,1,1,237.50000835210085,425.5000069513917"></path><path id="kity_path_37" fill="none" stroke="gray" d="M227.00000835210085,425.5000069513917L236.00000835210085,425.5000069513917"></path></g><path id="node_outline2" fill="rgb(238, 243, 246)" stroke="rgb(115, 161, 191)" d="M241.5000087544322,412.5000069513917h129a3,3,0,0,1,3,3v20a3,3,0,0,1,-3,3h-129a3,3,0,0,1,-3,-3v-20a3,3,0,0,1,3,-3z" stroke-width="1"></path><g id="node_text2" fill="black"><text id="kity_text_33" text-rendering="inherit" font-size="14" dy=".8em" y="416.40000692009926" x="258.5000087544322">json.Serializer</text></g></g><g id="minder_node3"><g id="node_expander2" style="cursor: pointer;"><path id="kity_path_44" fill="white" stroke="gray" d="M413.5000109747052,207.50000370293856A6,6,0,1,1,401.5000109747052,207.50000370293856A6,6,0,1,1,413.5000109747052,207.50000370293856"></path><path id="kity_path_45" fill="none" stroke="gray" d="M403.0000109747052,207.50000370293856L412.0000109747052,207.50000370293856"></path></g><path id="node_outline3" fill="none" stroke="none" d="M418.5000112131238,196.50000370293856h36a5,5,0,0,1,5,5v12a5,5,0,0,1,-5,5h-36a5,5,0,0,1,-5,-5v-12a5,5,0,0,1,5,-5z" stroke-width="3"></path><g id="node_text3" fill="black"><text id="kity_text_41" text-rendering="inherit" font-size="12" dy=".8em" y="199.70000367611647" x="423.5000112131238">属性</text></g></g><g id="minder_node4"><g id="node_expander3" style="cursor: pointer;"><path id="kity_path_52" fill="white" stroke="gray" d="M499.5000122562051,49.50000134855509A6,6,0,1,1,487.5000122562051,49.50000134855509A6,6,0,1,1,499.5000122562051,49.50000134855509"></path><path id="kity_path_53" fill="none" stroke="gray" d="M489.0000122562051,49.50000134855509L498.0000122562051,49.50000134855509"></path></g><path id="node_outline4" fill="none" stroke="none" d="M504.50001249462366,38.50000134855509h115a5,5,0,0,1,5,5v12a5,5,0,0,1,-5,5h-115a5,5,0,0,1,-5,-5v-12a5,5,0,0,1,5,-5z" stroke-width="3"></path><g id="node_text4" fill="black"><text id="kity_text_49" text-rendering="inherit" font-size="12" dy=".8em" y="41.700001321733" x="509.50001249462366">meta    MetaFactory</text></g></g><g id="minder_node5"><g id="node_expander4" style="cursor: pointer;" display="none"><path id="kity_path_60" fill="white" stroke="gray" d="M499.5000122562051,119.50000239163637A6,6,0,1,1,487.5000122562051,119.50000239163637A6,6,0,1,1,499.5000122562051,119.50000239163637"></path><path id="kity_path_61" fill="none" stroke="gray"></path></g><path id="node_outline5" fill="none" stroke="none" d="M504.50001249462366,108.50000239163637h155a5,5,0,0,1,5,5v12a5,5,0,0,1,-5,5h-155a5,5,0,0,1,-5,-5v-12a5,5,0,0,1,5,-5z" stroke-width="3"></path><g id="node_text5" fill="black"><text id="kity_text_57" text-rendering="inherit" font-size="12" dy=".8em" y="111.70000236481428" x="509.50001249462366">options SerializerOptions</text></g></g><g id="minder_node6"><g id="node_expander5" style="cursor: pointer;"><path id="kity_path_68" fill="white" stroke="gray" d="M499.5000122562051,189.50000343471766A6,6,0,1,1,487.5000122562051,189.50000343471766A6,6,0,1,1,499.5000122562051,189.50000343471766"></path><path id="kity_path_69" fill="none" stroke="gray" d="M489.0000122562051,189.50000343471766L498.0000122562051,189.50000343471766"></path></g><path id="node_outline6" fill="none" stroke="none" d="M504.50001249462366,178.50000343471766h181a5,5,0,0,1,5,5v12a5,5,0,0,1,-5,5h-181a5,5,0,0,1,-5,-5v-12a5,5,0,0,1,5,-5z" stroke-width="3"></path><g id="node_text6" fill="black"><text id="kity_text_65" text-rendering="inherit" font-size="12" dy=".8em" y="181.70000340789557" x="509.50001249462366">creater runtime.ObjectCreater</text></g></g><g id="minder_node7"><g id="node_expander6" style="cursor: pointer;"><path id="kity_path_76" fill="white" stroke="gray" d="M499.5000122562051,286.5000048801303A6,6,0,1,1,487.5000122562051,286.5000048801303A6,6,0,1,1,499.5000122562051,286.5000048801303"></path><path id="kity_path_77" fill="none" stroke="gray" d="M489.0000122562051,286.5000048801303L498.0000122562051,286.5000048801303"></path></g><path id="node_outline7" fill="none" stroke="none" d="M504.50001249462366,275.5000048801303h161a5,5,0,0,1,5,5v12a5,5,0,0,1,-5,5h-161a5,5,0,0,1,-5,-5v-12a5,5,0,0,1,5,-5z" stroke-width="3"></path><g id="node_text7" fill="black"><text id="kity_text_73" text-rendering="inherit" font-size="12" dy=".8em" y="278.7000048533082" x="509.50001249462366">typer   runtime.ObjectTyper</text></g></g><g id="minder_node8"><g id="node_expander7" style="cursor: pointer;" display="none"><path id="kity_path_84" fill="white" stroke="gray" d="M499.5000122562051,365.500006057322A6,6,0,1,1,487.5000122562051,365.500006057322A6,6,0,1,1,499.5000122562051,365.500006057322"></path><path id="kity_path_85" fill="none" stroke="gray"></path></g><path id="node_outline8" fill="none" stroke="none" d="M504.50001249462366,354.500006057322h165a5,5,0,0,1,5,5v12a5,5,0,0,1,-5,5h-165a5,5,0,0,1,-5,-5v-12a5,5,0,0,1,5,-5z" stroke-width="3"></path><g id="node_text8" fill="black"><text id="kity_text_81" text-rendering="inherit" font-size="12" dy=".8em" y="357.70000603049994" x="509.50001249462366">identifier runtime.Identifier</text></g></g><g id="minder_node10"><g id="node_expander9" style="cursor: pointer;" display="none"><path id="kity_path_102" fill="white" stroke="gray" d="M730.5000156983733,189.50000343471766A6,6,0,1,1,718.5000156983733,189.50000343471766A6,6,0,1,1,730.5000156983733,189.50000343471766"></path><path id="kity_path_103" fill="none" stroke="gray"></path></g><path id="node_outline10" fill="none" stroke="none" d="M735.5000159367919,160.50000343471766h357a5,5,0,0,1,5,5v48a5,5,0,0,1,-5,5h-357a5,5,0,0,1,-5,-5v-48a5,5,0,0,1,5,-5z" stroke-width="3"></path><g id="node_text10" fill="black"><text id="kity_text_99" text-rendering="inherit" font-size="12" dy=".8em" y="163.70000340789557" x="740.5000159367919">type ObjectCreater interface {</text><text id="kity_text_104" text-rendering="inherit" font-size="12" dy=".8em" y="181.70000340789557" x="740.5000159367919">&#xa0; New(kind schema.GroupVersionKind) (out Object, err error)</text><text id="kity_text_105" text-rendering="inherit" font-size="12" dy=".8em" y="199.70000340789557" x="740.5000159367919">}</text></g></g><g id="minder_node11"><g id="node_expander10" style="cursor: pointer;" display="none"><path id="kity_path_112" fill="white" stroke="gray" d="M710.5000154003501,286.5000048801303A6,6,0,1,1,698.5000154003501,286.5000048801303A6,6,0,1,1,710.5000154003501,286.5000048801303"></path><path id="kity_path_113" fill="none" stroke="gray"></path></g><path id="node_outline11" fill="none" stroke="none" d="M715.5000156387687,248.5000048801303h370a5,5,0,0,1,5,5v66a5,5,0,0,1,-5,5h-370a5,5,0,0,1,-5,-5v-66a5,5,0,0,1,5,-5z" stroke-width="3"></path><g id="node_text11" fill="black"><text id="kity_text_109" text-rendering="inherit" font-size="12" dy=".8em" y="251.7000048533082" x="720.5000156387687">type ObjectTyper interface {</text><text id="kity_text_114" text-rendering="inherit" font-size="12" dy=".8em" y="269.7000048533082" x="720.5000156387687">&#xa0; ObjectKinds(Object) ([]schema.GroupVersionKind, bool, error)</text><text id="kity_text_115" text-rendering="inherit" font-size="12" dy=".8em" y="287.7000048533082" x="720.5000156387687">&#xa0; Recognizes(gvk schema.GroupVersionKind) bool</text><text id="kity_text_116" text-rendering="inherit" font-size="12" dy=".8em" y="305.7000048533082" x="720.5000156387687">}</text></g></g><g id="minder_node15"><g id="node_expander15" style="cursor: pointer;" display="none"><path id="kity_path_162" fill="white" stroke="gray" d="M664.5000147148967,49.50000134855509A6,6,0,1,1,652.5000147148967,49.50000134855509A6,6,0,1,1,664.5000147148967,49.50000134855509"></path><path id="kity_path_163" fill="none" stroke="gray" d="M654.0000147148967,49.50000134855509L663.0000147148967,49.50000134855509"></path></g><path id="node_outline16" fill="none" stroke="none" d="M669.5000149533153,20.500001348555088h340a5,5,0,0,1,5,5v48a5,5,0,0,1,-5,5h-340a5,5,0,0,1,-5,-5v-48a5,5,0,0,1,5,-5z" stroke-width="3"></path><g id="node_text16" fill="black"><text id="kity_text_154" text-rendering="inherit" font-size="12" dy=".8em" y="23.700001321732998" x="674.5000149533153">type MetaFactory interface {</text><text id="kity_text_167" text-rendering="inherit" font-size="12" dy=".8em" y="41.700001321733" x="674.5000149533153">&#xa0; Interpret(data []byte) (*schema.GroupVersionKind, error)</text><text id="kity_text_168" text-rendering="inherit" font-size="12" dy=".8em" y="59.700001321733" x="674.5000149533153">}</text></g></g><g id="minder_node17"><g id="node_expander16" style="cursor: pointer;"><path id="kity_path_175" fill="white" stroke="gray" d="M413.5000109747052,643.5000101998448A6,6,0,1,1,401.5000109747052,643.5000101998448A6,6,0,1,1,413.5000109747052,643.5000101998448"></path><path id="kity_path_176" fill="none" stroke="gray" d="M403.0000109747052,643.5000101998448L412.0000109747052,643.5000101998448"></path></g><path id="node_outline17" fill="none" stroke="none" d="M418.5000112131238,632.5000101998448h58a5,5,0,0,1,5,5v12a5,5,0,0,1,-5,5h-58a5,5,0,0,1,-5,-5v-12a5,5,0,0,1,5,-5z" stroke-width="3"></path><g id="node_text17" fill="black"><text id="kity_text_172" text-rendering="inherit" font-size="12" dy=".8em" y="635.7000101730227" x="423.5000112131238">实现接口</text></g></g><g id="minder_node18"><g id="node_expander17" style="cursor: pointer;"><path id="kity_path_183" fill="white" stroke="gray" d="M521.5000125840306,551.500008828938A6,6,0,1,1,509.5000125840306,551.500008828938A6,6,0,1,1,521.5000125840306,551.500008828938"></path><path id="kity_path_184" fill="none" stroke="gray" d="M511.0000125840306,551.500008828938L520.0000125840306,551.500008828938"></path></g><path id="node_outline18" fill="none" stroke="none" d="M526.5000128224492,540.500008828938h79a5,5,0,0,1,5,5v12a5,5,0,0,1,-5,5h-79a5,5,0,0,1,-5,-5v-12a5,5,0,0,1,5,-5z" stroke-width="3"></path><g id="node_text18" fill="black"><text id="kity_text_180" text-rendering="inherit" font-size="12" dy=".8em" y="543.7000088021159" x="531.5000128224492">interface.go</text></g></g><g id="minder_node22"><g id="node_expander21" style="cursor: pointer;"><path id="kity_path_215" fill="white" stroke="gray" d="M650.5000145062804,445.5000072494149A6,6,0,1,1,638.5000145062804,445.5000072494149A6,6,0,1,1,650.5000145062804,445.5000072494149"></path><path id="kity_path_216" fill="none" stroke="gray" d="M640.0000145062804,445.5000072494149L649.0000145062804,445.5000072494149"></path></g><path id="node_outline22" fill="none" stroke="none" d="M655.500014744699,434.5000072494149h66a5,5,0,0,1,5,5v12a5,5,0,0,1,-5,5h-66a5,5,0,0,1,-5,-5v-12a5,5,0,0,1,5,-5z" stroke-width="3"></path><g id="node_text22" fill="black"><text id="kity_text_212" text-rendering="inherit" font-size="12" dy=".8em" y="437.70000722259283" x="660.500014744699">&#xa0;Serializer</text></g></g><g id="minder_node23"><g id="node_expander22" style="cursor: pointer;" display="none"><path id="kity_path_223" fill="white" stroke="gray" d="M766.5000162348151,445.5000072494149A6,6,0,1,1,754.5000162348151,445.5000072494149A6,6,0,1,1,766.5000162348151,445.5000072494149"></path><path id="kity_path_224" fill="none" stroke="gray"></path></g><path id="node_outline23" fill="none" stroke="none" d="M771.5000164732337,407.5000072494149h152a5,5,0,0,1,5,5v66a5,5,0,0,1,-5,5h-152a5,5,0,0,1,-5,-5v-66a5,5,0,0,1,5,-5z" stroke-width="3"></path><g id="node_text23" fill="black"><text id="kity_text_220" text-rendering="inherit" font-size="12" dy=".8em" y="410.70000722259283" x="776.5000164732337">type Serializer interface {</text><text id="kity_text_225" text-rendering="inherit" font-size="12" dy=".8em" y="428.70000722259283" x="776.5000164732337">&#xa0; Encoder</text><text id="kity_text_226" text-rendering="inherit" font-size="12" dy=".8em" y="446.70000722259283" x="776.5000164732337">&#xa0; Decoder</text><text id="kity_text_227" text-rendering="inherit" font-size="12" dy=".8em" y="464.70000722259283" x="776.5000164732337">}</text></g></g><g id="minder_node24"><g id="node_expander23" style="cursor: pointer;"><path id="kity_path_234" fill="white" stroke="gray" d="M650.5000145062804,551.500008828938A6,6,0,1,1,638.5000145062804,551.500008828938A6,6,0,1,1,650.5000145062804,551.500008828938"></path><path id="kity_path_235" fill="none" stroke="gray" d="M640.0000145062804,551.500008828938L649.0000145062804,551.500008828938"></path></g><path id="node_outline24" fill="none" stroke="none" d="M655.500014744699,540.500008828938h53a5,5,0,0,1,5,5v12a5,5,0,0,1,-5,5h-53a5,5,0,0,1,-5,-5v-12a5,5,0,0,1,5,-5z" stroke-width="3"></path><g id="node_text24" fill="black"><text id="kity_text_231" text-rendering="inherit" font-size="12" dy=".8em" y="543.7000088021159" x="660.500014744699">Encode</text></g></g><g id="minder_node25"><g id="node_expander24" style="cursor: pointer;" display="none"><path id="kity_path_242" fill="white" stroke="gray" d="M753.5000160411,551.500008828938A6,6,0,1,1,741.5000160411,551.500008828938A6,6,0,1,1,753.5000160411,551.500008828938"></path><path id="kity_path_243" fill="none" stroke="gray"></path></g><path id="node_outline25" fill="none" stroke="none" d="M758.5000162795186,513.500008828938h228a5,5,0,0,1,5,5v66a5,5,0,0,1,-5,5h-228a5,5,0,0,1,-5,-5v-66a5,5,0,0,1,5,-5z" stroke-width="3"></path><g id="node_text25" fill="black"><text id="kity_text_239" text-rendering="inherit" font-size="12" dy=".8em" y="516.7000088021159" x="763.5000162795186">type Encoder interface {</text><text id="kity_text_244" text-rendering="inherit" font-size="12" dy=".8em" y="534.7000088021159" x="763.5000162795186">&#xa0; Encode(obj Object, w io.Writer) error</text><text id="kity_text_245" text-rendering="inherit" font-size="12" dy=".8em" y="552.7000088021159" x="763.5000162795186">&#xa0; Identifier() Identifier</text><text id="kity_text_246" text-rendering="inherit" font-size="12" dy=".8em" y="570.7000088021159" x="763.5000162795186">}</text></g></g><g id="minder_node26"><g id="node_expander25" style="cursor: pointer;"><path id="kity_path_253" fill="white" stroke="gray" d="M650.5000145062804,657.5000104084611A6,6,0,1,1,638.5000145062804,657.5000104084611A6,6,0,1,1,650.5000145062804,657.5000104084611"></path><path id="kity_path_254" fill="none" stroke="gray" d="M640.0000145062804,657.5000104084611L649.0000145062804,657.5000104084611"></path></g><path id="node_outline26" fill="none" stroke="none" d="M655.500014744699,646.5000104084611h54a5,5,0,0,1,5,5v12a5,5,0,0,1,-5,5h-54a5,5,0,0,1,-5,-5v-12a5,5,0,0,1,5,-5z" stroke-width="3"></path><g id="node_text26" fill="black"><text id="kity_text_250" text-rendering="inherit" font-size="12" dy=".8em" y="649.700010381639" x="660.500014744699">Decode</text></g></g><g id="minder_node27"><g id="node_expander26" style="cursor: pointer;" display="none"><path id="kity_path_261" fill="white" stroke="gray" d="M754.5000160560012,657.5000104084611A6,6,0,1,1,742.5000160560012,657.5000104084611A6,6,0,1,1,754.5000160560012,657.5000104084611"></path><path id="kity_path_262" fill="none" stroke="gray"></path></g><path id="node_outline27" fill="none" stroke="none" d="M759.5000162944198,619.5000104084611h661a5,5,0,0,1,5,5v66a5,5,0,0,1,-5,5h-661a5,5,0,0,1,-5,-5v-66a5,5,0,0,1,5,-5z" stroke-width="3"></path><g id="node_text27" fill="black"><text id="kity_text_258" text-rendering="inherit" font-size="12" dy=".8em" y="622.700010381639" x="764.5000162944198">type Decoder interface {</text><text id="kity_text_263" text-rendering="inherit" font-size="12" dy=".8em" y="640.700010381639" x="764.5000162944198">&#xa0; // 返回的 Object 就是 TypeMeta 是想的 runtime.Object 接口</text><text id="kity_text_264" text-rendering="inherit" font-size="12" dy=".8em" y="658.700010381639" x="764.5000162944198">&#xa0; Decode(data []byte, defaults *schema.GroupVersionKind, into Object) (Object, *schema.GroupVersionKind, error)</text><text id="kity_text_265" text-rendering="inherit" font-size="12" dy=".8em" y="676.700010381639" x="764.5000162944198">}</text></g></g><g id="minder_node28"><g id="node_expander27" style="cursor: pointer;"><path id="kity_path_272" fill="white" stroke="gray" d="M521.5000125840306,736.5000115856528A6,6,0,1,1,509.5000125840306,736.5000115856528A6,6,0,1,1,521.5000125840306,736.5000115856528"></path><path id="kity_path_273" fill="none" stroke="gray" d="M511.0000125840306,736.5000115856528L520.0000125840306,736.5000115856528"></path></g><path id="node_outline28" fill="none" stroke="none" d="M526.5000128224492,725.5000115856528h209a5,5,0,0,1,5,5v12a5,5,0,0,1,-5,5h-209a5,5,0,0,1,-5,-5v-12a5,5,0,0,1,5,-5z" stroke-width="3"></path><g id="node_text28" fill="black"><text id="kity_text_269" text-rendering="inherit" font-size="12" dy=".8em" y="728.7000115588307" x="531.5000128224492">serializer/recognizer/recognizer.go</text></g></g><g id="minder_node29"><g id="node_expander28" style="cursor: pointer;" display="none"><path id="kity_path_280" fill="white" stroke="gray" d="M780.5000164434314,736.5000115856528A6,6,0,1,1,768.5000164434314,736.5000115856528A6,6,0,1,1,780.5000164434314,736.5000115856528"></path><path id="kity_path_281" fill="none" stroke="gray"></path></g><path id="node_outline29" fill="none" stroke="none" d="M785.50001668185,698.5000115856528h351a5,5,0,0,1,5,5v66a5,5,0,0,1,-5,5h-351a5,5,0,0,1,-5,-5v-66a5,5,0,0,1,5,-5z" stroke-width="3"></path><g id="node_text29" fill="black"><text id="kity_text_277" text-rendering="inherit" font-size="12" dy=".8em" y="701.7000115588307" x="790.50001668185">type RecognizingDecoder interface {</text><text id="kity_text_282" text-rendering="inherit" font-size="12" dy=".8em" y="719.7000115588307" x="790.50001668185">&#xa0; runtime.Decoder</text><text id="kity_text_283" text-rendering="inherit" font-size="12" dy=".8em" y="737.7000115588307" x="790.50001668185">&#xa0; RecognizesData(peek []byte) (ok, unknown bool, err error)</text><text id="kity_text_284" text-rendering="inherit" font-size="12" dy=".8em" y="755.7000115588307" x="790.50001668185">}</text></g></g></g></g></svg>