<svg xmlns="http://www.w3.org/2000/svg" xmlns:xlink="http://www.w3.org/1999/xlink" width="658pt" height="320pt" viewBox="0.00 0.00 658.45 320.00">
<g id="graph0" class="graph" transform="scale(1 1) rotate(0) translate(4 316)">
<title>tools</title>
<polygon fill="white" stroke="none" points="-4,4 -4,-316 654.45,-316 654.45,4 -4,4"/>
<!-- runnables.base.RunnableSerializable -->
<g id="node1" class="node">
<title>runnables.base.RunnableSerializable</title>
<polygon fill="none" stroke="black" points="0,-27.5 0,-63.5 241.54,-63.5 241.54,-27.5 0,-27.5"/>
<text text-anchor="middle" x="111.02" y="-41.4" font-family="Times,serif" font-size="14.00">runnables.base.RunnableSerializable</text>
<polyline fill="none" stroke="black" points="222.04,-27.7 222.04,-63.5"/>
<text text-anchor="middle" x="231.79" y="-41.4" font-family="Times,serif" font-size="14.00"> </text>
</g>
<!-- base.BaseTool -->
<g id="node2" class="node">
<title>base.BaseTool</title>
<polygon fill="none" stroke="black" points="297.36,-27.5 297.36,-63.5 414.89,-63.5 414.89,-27.5 297.36,-27.5"/>
<text text-anchor="middle" x="346.37" y="-41.4" font-family="Times,serif" font-size="14.00">base.BaseTool</text>
<polyline fill="none" stroke="black" points="395.39,-27.7 395.39,-63.5"/>
<text text-anchor="middle" x="405.14" y="-41.4" font-family="Times,serif" font-size="14.00"> </text>
</g>
<!-- base.BaseTool&#45;&gt;runnables.base.RunnableSerializable -->
<g id="edge1" class="edge">
<title>base.BaseTool-&gt;runnables.base.RunnableSerializable</title>
<path fill="none" stroke="#595959" d="M285.52,-45.5C285.52,-45.5 241.94,-45.5 241.94,-45.5"/>
<polygon fill="#595959" stroke="#595959" points="285.52,-49 295.52,-45.5 285.52,-42 285.52,-49"/>
</g>
<!-- base.BaseToolkit -->
<g id="node3" class="node">
<title>base.BaseToolkit</title>
<polygon fill="none" stroke="black" points="494.42,-110.5 494.42,-146.5 626.73,-146.5 626.73,-110.5 494.42,-110.5"/>
<text text-anchor="middle" x="550.83" y="-124.4" font-family="Times,serif" font-size="14.00">base.BaseToolkit</text>
<polyline fill="none" stroke="black" points="607.23,-110.7 607.23,-146.5"/>
<text text-anchor="middle" x="616.98" y="-124.4" font-family="Times,serif" font-size="14.00"> </text>
</g>
<!-- base.InjectedToolArg -->
<g id="node4" class="node">
<title>base.InjectedToolArg</title>
<polygon fill="none" stroke="black" points="277.54,-165.5 277.54,-201.5 434.71,-201.5 434.71,-165.5 277.54,-165.5"/>
<text text-anchor="middle" x="346.37" y="-179.4" font-family="Times,serif" font-size="14.00">base.InjectedToolArg</text>
<polyline fill="none" stroke="black" points="415.21,-165.7 415.21,-201.5"/>
<text text-anchor="middle" x="424.96" y="-179.4" font-family="Times,serif" font-size="14.00"> </text>
</g>
<!-- base.InjectedToolCallId -->
<g id="node5" class="node">
<title>base.InjectedToolCallId</title>
<polygon fill="none" stroke="black" points="475.38,-165.5 475.38,-201.5 645.77,-201.5 645.77,-165.5 475.38,-165.5"/>
<text text-anchor="middle" x="550.83" y="-179.4" font-family="Times,serif" font-size="14.00">base.InjectedToolCallId</text>
<polyline fill="none" stroke="black" points="626.27,-165.7 626.27,-201.5"/>
<text text-anchor="middle" x="636.02" y="-179.4" font-family="Times,serif" font-size="14.00"> </text>
</g>
<!-- base.InjectedToolCallId&#45;&gt;base.InjectedToolArg -->
<g id="edge2" class="edge">
<title>base.InjectedToolCallId-&gt;base.InjectedToolArg</title>
<path fill="none" stroke="#595959" d="M463.54,-183.5C463.54,-183.5 435.1,-183.5 435.1,-183.5"/>
<polygon fill="#595959" stroke="#595959" points="463.54,-187 473.54,-183.5 463.54,-180 463.54,-187"/>
</g>
<!-- base._SchemaConfig -->
<g id="node6" class="node">
<title>base._SchemaConfig</title>
<polygon fill="none" stroke="black" points="483.54,-220.5 483.54,-256.5 637.62,-256.5 637.62,-220.5 483.54,-220.5"/>
<text text-anchor="middle" x="550.83" y="-234.4" font-family="Times,serif" font-size="14.00">base._SchemaConfig</text>
<polyline fill="none" stroke="black" points="618.12,-220.7 618.12,-256.5"/>
<text text-anchor="middle" x="627.87" y="-234.4" font-family="Times,serif" font-size="14.00"> </text>
</g>
<!-- retriever.RetrieverInput -->
<g id="node7" class="node">
<title>retriever.RetrieverInput</title>
<polygon fill="none" stroke="black" points="476.56,-275.5 476.56,-311.5 644.6,-311.5 644.6,-275.5 476.56,-275.5"/>
<text text-anchor="middle" x="550.83" y="-289.4" font-family="Times,serif" font-size="14.00">retriever.RetrieverInput</text>
<polyline fill="none" stroke="black" points="625.1,-275.7 625.1,-311.5"/>
<text text-anchor="middle" x="634.85" y="-289.4" font-family="Times,serif" font-size="14.00"> </text>
</g>
<!-- simple.Tool -->
<g id="node8" class="node">
<title>simple.Tool</title>
<polygon fill="none" stroke="black" points="509.19,-55.5 509.19,-91.5 611.96,-91.5 611.96,-55.5 509.19,-55.5"/>
<text text-anchor="middle" x="550.83" y="-69.4" font-family="Times,serif" font-size="14.00">simple.Tool</text>
<polyline fill="none" stroke="black" points="592.46,-55.7 592.46,-91.5"/>
<text text-anchor="middle" x="602.21" y="-69.4" font-family="Times,serif" font-size="14.00"> </text>
</g>
<!-- simple.Tool&#45;&gt;base.BaseTool -->
<g id="edge3" class="edge">
<title>simple.Tool-&gt;base.BaseTool</title>
<path fill="none" stroke="#595959" d="M497.21,-59.5C497.21,-59.5 415.16,-59.5 415.16,-59.5"/>
<polygon fill="#595959" stroke="#595959" points="497.21,-63 507.21,-59.5 497.21,-56 497.21,-63"/>
</g>
<!-- structured.StructuredTool -->
<g id="node9" class="node">
<title>structured.StructuredTool</title>
<polygon fill="none" stroke="black" points="470.71,-0.5 470.71,-36.5 650.45,-36.5 650.45,-0.5 470.71,-0.5"/>
<text text-anchor="middle" x="550.83" y="-14.4" font-family="Times,serif" font-size="14.00">structured.StructuredTool</text>
<polyline fill="none" stroke="black" points="630.95,-0.7 630.95,-36.5"/>
<text text-anchor="middle" x="640.7" y="-14.4" font-family="Times,serif" font-size="14.00"> </text>
</g>
<!-- structured.StructuredTool&#45;&gt;base.BaseTool -->
<g id="edge4" class="edge">
<title>structured.StructuredTool-&gt;base.BaseTool</title>
<path fill="none" stroke="#595959" d="M458.79,-32C458.79,-32 415.37,-32 415.37,-32"/>
<polygon fill="#595959" stroke="#595959" points="458.79,-35.5 468.79,-32 458.79,-28.5 458.79,-35.5"/>
</g>
</g>
</svg>